<svg id="Layer_1" data-name="Layer 1" xmlns="http://www.w3.org/2000/svg" viewBox="0 0 184 23"><path d="M25.84,12.78l-2.58,1.28v2.55l-7.75,3.84L7.76,16.61V9L5.16,7.67,15.5,2.55,20.67,5.1l5.16,2.56L15.5,12.78,11.92,11v2.56l3.58,1.76L31,7.67,20.67,2.55,15.5,0,0,7.67l5.16,2.55v7.66L15.5,23l10.34-5.12v-5.1Z"/><path d="M45.49,3h3.67l6.41,18H52.83L51.39,16.9H43.13l-1.44,4H39Zm5,11.5-3.18-9h-.21L44,14.5Z"/><path d="M56.6,14.25c0-4,2.59-7,6.28-7a5,5,0,0,1,4.33,2.26h.2V1.71H70V21H67.46V19.1h-.18A5,5,0,0,1,63,21.28C59.34,21.28,56.6,18.33,56.6,14.25Zm10.89,0c0-3-1.9-4.69-4.18-4.69s-4.16,1.94-4.16,4.69,1.85,4.67,4.18,4.67C65.88,18.94,67.49,16.81,67.49,14.27Z"/><path d="M72.34,7.56H75l3.67,11h.2l3.64-11h2.77L80.54,20.94h-3.4Z"/><path d="M86.5,14.27c0-4.23,3-7,6.59-7,4.08,0,6.47,2.89,6.47,6.9v.8H89.11a3.84,3.84,0,0,0,4.1,4.16,3.67,3.67,0,0,0,3.69-2.59l2.39.59a6,6,0,0,1-6.07,4.21C89.13,21.28,86.5,18.38,86.5,14.27ZM97,13a3.64,3.64,0,0,0-3.87-3.53,3.9,3.9,0,0,0-4,3.53Z"/><path d="M102.42,7.56H105V9.3h.2A4.13,4.13,0,0,1,109,7.22a4.8,4.8,0,0,1,4.9,5.13v8.59h-2.54V12.79a3,3,0,0,0-3.07-3.18A3.32,3.32,0,0,0,105,13v7.92h-2.54V7.56Z"/><path d="M118.75,17V9.76h-2.43V7.56h2.59V3.74h2.38V7.56h3.95v2.2h-3.95V17c0,1.21.49,1.71,1.67,1.71h2.13v2.23h-2.16C120.42,20.94,118.75,19.79,118.75,17Z"/><path d="M128.11,16.15V7.56h2.54v8.15a3,3,0,0,0,3.08,3.15,3.29,3.29,0,0,0,3.33-3.38V7.56h2.54V20.94h-2.54V19.2h-.2A4.13,4.13,0,0,1,133,21.28,4.82,4.82,0,0,1,128.11,16.15Z"/><path d="M142.35,17.18l2.36-.54c.23,1.59,1.33,2.39,3.06,2.39s2.64-.75,2.64-1.87c0-3.23-7.62-.67-7.62-6,0-2.28,2-3.9,4.9-3.9,2.43,0,4.56,1.31,5,3.72l-2.23.64a2.57,2.57,0,0,0-2.82-2.1c-1.47,0-2.38.69-2.38,1.67,0,2.92,7.74.34,7.74,5.8,0,2.59-2.1,4.33-5.31,4.33C144.7,21.28,142.68,19.76,142.35,17.18Z"/><path d="M156,19.64a1.69,1.69,0,0,1,1.7-1.67,1.66,1.66,0,1,1-1.7,1.67Z"/><path d="M164.17,9.76h-2.43V7.56h5V20.94h-2.54V9.76Zm-.41-6.15a1.71,1.71,0,0,1,3.41,0,1.71,1.71,0,1,1-3.41,0Z"/><path d="M170,14.25a7,7,0,0,1,14,0,7,7,0,1,1-14,0Zm11.46,0a4.44,4.44,0,1,0-8.87,0,4.44,4.44,0,1,0,8.87,0Z"/></svg>